<svg width="40" height="50" viewBox="0 0 40 50" fill="none" xmlns="http://www.w3.org/2000/svg">
<path d="M36.924 43.653H3.0762C1.8394 43.653 0.83667 42.3997 0.83667 40.8536V35.0724H39.1635V40.8536C39.1635 42.3996 38.1609 43.653 36.924 43.653Z" fill="#8429FE"/>
<path d="M37.4936 29.1086H2.50635V35.0724H37.4936V29.1086Z" fill="#32086D"/>
<path d="M37.4936 23.1444H2.50635V29.1082H37.4936V23.1444Z" fill="#32086D"/>
<path d="M39.1635 23.1448H0.83667C0.83667 13.8677 6.85316 6.34695 14.275 6.34695H25.7253C33.1471 6.34695 39.1635 13.8678 39.1635 23.1448Z" fill="#8429FE"/>
<path d="M39.1634 34.0763H38.2904V30.1046H39.2032C39.6433 30.1046 40 29.6586 40 29.1086C40 28.5586 39.6433 28.1126 39.2032 28.1126H38.2904V24.1409H39.1634C39.6035 24.1409 39.9602 23.6949 39.9602 23.1449C39.9602 13.3334 33.5745 5.35117 25.7252 5.35117H14.2748C6.42562 5.35117 0.0397656 13.3334 0.0397656 23.1449C0.0397656 23.6949 0.396484 24.1409 0.836563 24.1409H1.70961V28.1126H0.796797C0.356719 28.1125 0 28.5586 0 29.1086C0 29.6586 0.356719 30.1046 0.796797 30.1046H1.70961V34.0763H0.836563C0.396484 34.0763 0.0397656 34.5223 0.0397656 35.0723V40.8535C0.0397656 42.9464 1.40187 44.6488 3.07609 44.6488H36.9239C38.5982 44.6488 39.9602 42.9462 39.9602 40.8535V35.0723C39.9602 34.5223 39.6035 34.0763 39.1634 34.0763ZM1.65828 22.1488C2.07078 13.8979 7.57195 7.34316 14.2748 7.34316H25.7252C32.4282 7.34316 37.9293 13.898 38.3418 22.1488H1.65828ZM36.6967 24.1408V28.1125H3.30328V24.1408H36.6967ZM3.30328 30.1046H36.6968V34.0763H3.30328V30.1046ZM38.3666 36.0684V40.8536C38.3666 41.8479 37.7195 42.6569 36.9239 42.6569H3.07609C2.28055 42.6569 1.63336 41.8479 1.63336 40.8536V36.0684H38.3666Z" fill="white"/>
<path d="M13.6388 10.8219H13.957C14.397 10.8219 14.7538 10.3759 14.7538 9.82586C14.7538 9.27586 14.397 8.82986 13.957 8.82986H13.6388C13.1988 8.82986 12.842 9.27586 12.842 9.82586C12.842 10.3759 13.1988 10.8219 13.6388 10.8219Z" fill="white"/>
<path d="M17.6144 10.8219H17.9325C18.3726 10.8219 18.7293 10.3759 18.7293 9.82586C18.7293 9.27586 18.3726 8.82986 17.9325 8.82986H17.6144C17.1743 8.82986 16.8176 9.27586 16.8176 9.82586C16.8176 10.3759 17.1743 10.8219 17.6144 10.8219Z" fill="white"/>
<path d="M22.0673 10.8219H22.3854C22.8255 10.8219 23.1822 10.3759 23.1822 9.82586C23.1822 9.27586 22.8255 8.82986 22.3854 8.82986H22.0673C21.6272 8.82986 21.2705 9.27586 21.2705 9.82586C21.2705 10.3759 21.6272 10.8219 22.0673 10.8219Z" fill="white"/>
<path d="M26.0434 10.8219H26.3615C26.8016 10.8219 27.1583 10.3759 27.1583 9.82586C27.1583 9.27586 26.8016 8.82986 26.3615 8.82986H26.0434C25.6033 8.82986 25.2466 9.27586 25.2466 9.82586C25.2466 10.3759 25.6033 10.8219 26.0434 10.8219Z" fill="white"/>
<path d="M16.3422 20.8607H16.8193C17.2594 20.8607 17.6161 20.4147 17.6161 19.8647C17.6161 19.3147 17.2594 18.8687 16.8193 18.8687H16.3422C15.9021 18.8687 15.5454 19.3147 15.5454 19.8647C15.5454 20.4147 15.9021 20.8607 16.3422 20.8607Z" fill="white"/>
<path d="M4.01726 20.8607H13.3207C13.7608 20.8607 14.1175 20.4147 14.1175 19.8647C14.1175 19.3147 13.7608 18.8687 13.3207 18.8687H4.01726C3.57718 18.8687 3.22046 19.3147 3.22046 19.8647C3.22046 20.4147 3.57718 20.8607 4.01726 20.8607Z" fill="white"/>
</svg>
