<svg width="19" height="19" viewBox="0 0 19 19" fill="none" xmlns="http://www.w3.org/2000/svg">
<path d="M3.95837 3.95831H5.54171V5.54165H3.95837V3.95831ZM7.12504 7.12498H5.54171V5.54165H7.12504V7.12498ZM8.70837 8.70831H7.12504V7.12498H8.70837V8.70831ZM10.2917 8.70831H8.70837V10.2916H7.12504V11.875H5.54171V13.4583H3.95837V15.0416H5.54171V13.4583H7.12504V11.875H8.70837V10.2916H10.2917V11.875H11.875V13.4583H13.4584V15.0416H15.0417V13.4583H13.4584V11.875H11.875V10.2916H10.2917V8.70831ZM11.875 7.12498V8.70831H10.2917V7.12498H11.875ZM13.4584 5.54165V7.12498H11.875V5.54165H13.4584ZM13.4584 5.54165V3.95831H15.0417V5.54165H13.4584Z" fill="white"/>
</svg>
